<svg width="210" height="40" viewBox="0 0 210 40" fill="none" xmlns="http://www.w3.org/2000/svg">
<g clip-path="url(#clip0_2_27518)">
<path fill-rule="evenodd" clip-rule="evenodd" d="M17.5473 0H22.398V3.46167C23.6968 3.65103 24.9474 3.98974 26.1313 4.46103L27.8587 1.46519L32.0593 3.89375L30.3297 6.89337C31.342 7.69666 32.2589 8.61505 33.0611 9.62886L36.0571 7.89668L38.4822 12.1031L35.4903 13.833C35.9607 15.0184 36.2983 16.2704 36.4877 17.5712H39.9457V22.4285H36.4874C36.2983 23.7288 35.9602 24.9809 35.4897 26.1666L38.4825 27.8965L36.0571 32.103L33.0603 30.3705C32.2584 31.3841 31.3412 32.302 30.3293 33.1054L32.0595 36.1061L27.8096 38.5662L26.0751 35.5595L26.0749 21.14L30.4777 18.5947V13.1909L22.622 17.7329H22.4751V17.8177L22.4627 17.825L22.4751 17.8466L22.475 40H17.4924V17.8466L17.5047 17.825L17.4924 17.8177V17.7329H17.3453L9.48958 13.1909V18.5947L13.8924 21.14L13.8922 35.5685L12.1588 38.5788L7.88599 36.1061L9.61602 33.1055C8.60388 32.3025 7.68692 31.3837 6.88469 30.3705L3.88839 32.103L1.46299 27.8965L4.45556 26.1666C3.98502 24.9812 3.64725 23.7287 3.4578 22.4285H0V17.5712H3.45759C3.64677 16.2705 3.98482 15.0182 4.4551 13.8326L1.46331 12.1031L3.88839 7.89668L6.8839 9.62865C7.68591 8.61505 8.60336 7.69645 9.6155 6.89305L7.88615 3.89375L12.0868 1.46519L13.8139 4.46065C14.9978 3.98963 16.2484 3.65103 17.5473 3.46167V0ZM19.9724 8.21054C21.9063 8.21054 23.4742 9.78086 23.4742 11.7168C23.4742 13.6533 21.9063 15.2231 19.9724 15.2231C18.0392 15.2231 16.471 13.6533 16.471 11.7168C16.471 9.78086 18.0392 8.21054 19.9724 8.21054Z" fill="url(#paint0_linear_2_27518)"/>
<path d="M57.0654 9.14258H60.4893V31.9997H57.0654V9.14258Z" fill="#363946"/>
<path d="M62.7715 14.084H65.9737V16.2679C66.3058 14.5652 68.1915 13.7139 71.631 13.7139C73.8369 13.7139 75.3787 14.1334 76.2564 14.9724C77.1578 15.7867 77.6084 17.0823 77.6084 18.859V31.9996H74.4062V19.0441C74.4062 18.5753 74.3706 18.1928 74.2995 17.8966C74.2283 17.6005 74.086 17.3044 73.8725 17.0083C73.3981 16.3913 72.3426 16.0829 70.7059 16.0829C69.4487 16.0829 68.4762 16.1816 67.7883 16.379C67.1241 16.5517 66.6497 16.8479 66.3651 17.2674C66.1042 17.6869 65.9737 18.2791 65.9737 19.0441V31.9996H62.7715V14.084Z" fill="#363946"/>
<path d="M86.1201 31.9996C84.3035 31.9996 82.3453 31.8545 80.2455 31.5642V29.0608C83.0059 29.5204 84.9877 29.7501 86.1909 29.7501C87.7008 29.7501 88.7861 29.605 89.4467 29.3148C90.1073 29.0003 90.4376 28.4319 90.4376 27.6096V25.8318C90.4376 25.082 90.1899 24.5498 89.6944 24.2354C89.199 23.921 88.3968 23.7638 87.288 23.7638H85.3416C83.5721 23.7638 82.2155 23.3888 81.2718 22.639C80.3517 21.8892 79.8916 20.8371 79.8916 19.4826V17.8499C79.8916 15.0926 82.4396 13.7139 87.5357 13.7139C87.9132 13.7139 89.6472 13.8106 92.7379 14.0041V16.3624C90.6381 16.0238 88.8569 15.8545 87.3941 15.8545C85.719 15.8545 84.5748 16.0238 83.9614 16.3624C83.348 16.701 83.0412 17.2694 83.0412 18.0676V19.5551C83.0412 20.7403 84.0911 21.3329 86.1909 21.3329H88.1727C91.7824 21.3329 93.5873 22.7116 93.5873 25.469V26.9928C93.5873 28.8068 92.9738 30.1009 91.747 30.8749C90.5202 31.6247 88.6446 31.9996 86.1201 31.9996Z" fill="#363946"/>
<path d="M105.014 31.9997C103.62 31.9997 102.528 31.8459 101.741 31.5383C100.954 31.2071 100.38 30.6628 100.02 29.9057C99.6826 29.1248 99.5138 28.0364 99.5138 26.6404V16.5605H95.8691V14.4665H99.5138V9.14258H102.585V14.4665H108.423V16.5605H102.585V26.8178C102.585 27.6696 102.674 28.3085 102.854 28.7344C103.057 29.1603 103.394 29.4679 103.868 29.6572C104.362 29.8229 105.071 29.9057 105.994 29.9057C106.286 29.9057 107.096 29.811 108.423 29.6217V31.7158C107.276 31.9051 106.139 31.9997 105.014 31.9997Z" fill="#363946"/>
<path d="M117.111 31.9996C115.447 31.9996 114.156 31.8424 113.239 31.5279C112.347 31.2135 111.695 30.6572 111.285 29.859C110.899 29.0608 110.706 27.9119 110.706 26.4123C110.706 25.082 110.887 24.054 111.249 23.3284C111.635 22.5786 112.274 22.0464 113.167 21.732C114.084 21.4176 115.374 21.2604 117.039 21.2604H122.286V18.4667C122.286 17.8136 122.153 17.3178 121.888 16.9792C121.647 16.6164 121.225 16.3624 120.621 16.2173C120.042 16.0721 119.186 15.9996 118.052 15.9996C116.243 15.9996 114.24 16.1447 112.045 16.435V14.0404C114.433 13.8227 116.593 13.7139 118.523 13.7139C120.549 13.7139 122.045 13.8711 123.01 14.1855C123.975 14.4758 124.638 14.9958 125 15.7456C125.362 16.4954 125.543 17.6564 125.543 19.2286V31.6368H122.395V29.9678C122.129 31.3223 120.368 31.9996 117.111 31.9996ZM117.654 29.859C118.836 29.859 119.837 29.7743 120.658 29.605C121.743 29.3873 122.286 28.8794 122.286 28.0812V23.2921H117.256C116.219 23.2921 115.471 23.3768 115.012 23.5461C114.554 23.6912 114.252 23.9814 114.108 24.4168C113.963 24.8522 113.891 25.5536 113.891 26.5211C113.891 27.3919 113.975 28.0691 114.144 28.5529C114.313 29.0124 114.614 29.3511 115.049 29.5687C115.483 29.7622 116.134 29.859 117.003 29.859H117.654Z" fill="#363946"/>
<path d="M135.775 11.5375H127.826V9.14258H147.228V11.5375H139.316V31.9997H135.775V11.5375Z" fill="#363946"/>
<path d="M149.511 14.084H152.484V17.0083C152.484 16.4407 152.717 15.9101 153.184 15.4166C153.65 14.8984 154.245 14.4912 154.968 14.1951C155.691 13.8743 156.402 13.7139 157.102 13.7139H158.641V16.5641H156.892C155.399 16.5641 154.315 16.7738 153.639 17.1933C152.986 17.5882 152.659 18.3161 152.659 19.3773V31.9996H149.511V14.084Z" fill="#363946"/>
<path d="M166.836 31.9996C165.3 31.9996 164.108 31.8424 163.262 31.5279C162.438 31.2135 161.837 30.6572 161.458 29.859C161.102 29.0608 160.924 27.9119 160.924 26.4123C160.924 25.082 161.091 24.054 161.425 23.3284C161.781 22.5786 162.371 22.0464 163.195 21.732C164.042 21.4176 165.233 21.2604 166.77 21.2604H171.613V18.4667C171.613 17.8136 171.491 17.3178 171.246 16.9792C171.023 16.6164 170.633 16.3624 170.077 16.2173C169.542 16.0721 168.752 15.9996 167.705 15.9996C166.035 15.9996 164.186 16.1447 162.16 16.435V14.0404C164.364 13.8227 166.358 13.7139 168.139 13.7139C170.01 13.7139 171.39 13.8711 172.281 14.1855C173.172 14.4758 173.784 14.9958 174.118 15.7456C174.452 16.4954 174.619 17.6564 174.619 19.2286V31.6368H171.713V29.9678C171.468 31.3223 169.843 31.9996 166.836 31.9996ZM167.337 29.859C168.429 29.859 169.353 29.7743 170.11 29.605C171.112 29.3873 171.613 28.8794 171.613 28.0812V23.2921H166.97C166.012 23.2921 165.322 23.3768 164.899 23.5461C164.476 23.6912 164.197 23.9814 164.064 24.4168C163.93 24.8522 163.863 25.5536 163.863 26.5211C163.863 27.3919 163.941 28.0691 164.097 28.5529C164.253 29.0124 164.531 29.3511 164.932 29.5687C165.333 29.7622 165.934 29.859 166.736 29.859H167.337Z" fill="#363946"/>
<path d="M183.823 32.0003C182.084 32.0003 180.719 31.835 179.728 31.5045C178.738 31.1504 178.013 30.5838 177.555 29.8047C177.12 29.0256 176.902 27.9396 176.902 26.5468V19.0039C176.902 17.2805 177.446 16.0411 178.533 15.2856C179.644 14.5301 181.468 14.1524 184.004 14.1524C185.526 14.1524 186.83 14.3413 187.917 14.719C189.028 15.0967 189.596 15.6397 189.62 16.348H189.692L189.62 11.9922V6.85742H192.881V31.6462H189.692V29.6276C189.692 30.2651 189.173 30.8081 188.134 31.2566C187.096 31.7524 185.658 32.0003 183.823 32.0003ZM184.511 29.8047C186.323 29.8047 187.627 29.604 188.424 29.2027C189.221 28.8014 189.62 28.1167 189.62 27.1488V18.6852C189.62 17.1507 188.013 16.3834 184.801 16.3834C182.869 16.3834 181.612 16.525 181.033 16.8083C180.429 17.0916 180.127 17.7173 180.127 18.6852V27.1488C180.127 28.1167 180.453 28.8014 181.105 29.2027C181.782 29.604 182.917 29.8047 184.511 29.8047Z" fill="#363946"/>
<path d="M203.081 31.9996C197.802 31.9996 195.163 30.2097 195.163 26.63V19.7003C195.163 17.5718 195.758 16.048 196.946 15.1288C198.159 14.1855 200.109 13.7139 202.796 13.7139C205.34 13.7139 207.171 14.1613 208.288 15.0563C209.429 15.9512 210 17.4992 210 19.7003V23.5823H198.409V26.2309C198.409 27.4402 198.825 28.311 199.657 28.8431C200.489 29.3752 201.773 29.6413 203.509 29.6413C205.149 29.6413 207.087 29.3511 209.322 28.7706V31.274C207.135 31.7577 205.054 31.9996 203.081 31.9996ZM206.79 21.4418V18.6844C206.79 17.6201 206.469 16.8945 205.827 16.5075C205.209 16.0963 204.139 15.8907 202.617 15.8907C201.143 15.8907 200.073 16.0963 199.407 16.5075C198.742 16.8945 198.409 17.6201 198.409 18.6844V21.4418H206.79Z" fill="#363946"/>
</g>
<defs>
<linearGradient id="paint0_linear_2_27518" x1="13.6957" y1="50.8571" x2="21.1339" y2="0.00289261" gradientUnits="userSpaceOnUse">
<stop stop-color="#CA0303"/>
<stop offset="1" stop-color="#FD3A46"/>
</linearGradient>
<clipPath id="clip0_2_27518">
<rect width="210" height="40" fill="white"/>
</clipPath>
</defs>
</svg>
